<?xml version="1.0" standalone="no"?>
<!DOCTYPE svg PUBLIC "-//W3C//DTD SVG 20010904//EN"
 "http://www.w3.org/TR/2001/REC-SVG-20010904/DTD/svg10.dtd">
<svg version="1.0" xmlns="http://www.w3.org/2000/svg"
 width="32.000000pt" height="32.000000pt" viewBox="0 0 32.000000 32.000000"
 preserveAspectRatio="xMidYMid meet">

<g transform="translate(0.000000,32.000000) scale(0.100000,-0.100000)"
fill="#000000" stroke="none">
<path d="M81 281 c-9 -6 -10 -11 -2 -15 6 -4 11 -16 11 -27 0 -18 -10 -23 -39
-19 -15 2 -13 -13 14 -95 30 -91 34 -97 58 -93 14 2 23 11 25 25 4 30 20 30
24 1 2 -17 10 -23 28 -23 21 0 27 7 38 45 7 25 20 60 28 78 20 47 17 80 -11
107 -21 22 -33 25 -92 25 -37 0 -74 -4 -82 -9z m147 -27 c28 -18 28 -31 0
-121 -24 -76 -38 -93 -38 -45 0 16 -7 37 -15 48 -15 19 -15 19 -30 0 -8 -11
-15 -32 -15 -48 0 -46 -14 -32 -36 37 -11 36 -17 65 -13 65 16 0 39 33 39 54
0 21 5 23 43 24 23 0 52 -6 65 -14z"/>
</g>
</svg>
